<svg xmlns="http://www.w3.org/2000/svg" viewBox="0 0 21.78 41.67"><defs><style>#walk_ico>.cls-1{fill:#1D1899}</style></defs><g id="Calque_2" data-name="Calque 2"><g id="walk_ico"><path class="cls-1" d="M9.87 6.73a3.12 3.12 0 0 0 2.3-1.06 3.27 3.27 0 0 0 .89-2.39A3.36 3.36 0 0 0 12 .93 3 3 0 0 0 9.7 0a3.18 3.18 0 0 0-2.31 1.06 3.45 3.45 0 0 0-.93 2.4 3.12 3.12 0 0 0 1 2.34 3.19 3.19 0 0 0 2.41.93zM21.07 17.93l-4.87-2.65-4-6.38a3.54 3.54 0 0 0-2.81-1.42 3.28 3.28 0 0 0-2.22 1l-6 6.11a1.88 1.88 0 0 0-.35.79L0 22.18v.18a1.46 1.46 0 0 0 .44 1.06 1.44 1.44 0 0 0 1.07.44 1.27 1.27 0 0 0 1-.44 1.87 1.87 0 0 0 .49-1l.62-5.85 2.13-2.12-1.94 16.32-3.46 7.7a3.37 3.37 0 0 0-.17 1 2.25 2.25 0 0 0 .66 1.64 2 2 0 0 0 1.64.57 2.06 2.06 0 0 0 1.95-1.24l3.72-8.34a1.25 1.25 0 0 1 .08-.31c.06-.15.12-.28.18-.4A.79.79 0 0 0 8.5 31l.44-4 3.81 13.11A2.08 2.08 0 0 0 15 41.66a2.13 2.13 0 0 0 1.51-.66 2.2 2.2 0 0 0 .67-1.64.74.74 0 0 0-.05-.22.69.69 0 0 1 0-.22l-5.35-18.15.62-5.94 1.5 2.39a1.71 1.71 0 0 0 .44.45l5.23 2.92a2.8 2.8 0 0 0 .71.18 1.41 1.41 0 0 0 1.06-.49 1.64 1.64 0 0 0 .44-1.11 1.38 1.38 0 0 0-.71-1.24z"/></g></g></svg>