<svg xmlns="http://www.w3.org/2000/svg" viewBox="0 0 33.78 27.44"><g data-name="Calque 2"><path d="M10.62 27.44c12.75 0 19.72-10.55 19.72-19.71v-.9a13.9 13.9 0 0 0 3.46-3.59 13.87 13.87 0 0 1-4 1.1 7 7 0 0 0 3-3.84 13.69 13.69 0 0 1-4.4 1.68A6.94 6.94 0 0 0 16.63 8.5 19.64 19.64 0 0 1 2.35 1.26a6.93 6.93 0 0 0 2.15 9.25 6.91 6.91 0 0 1-3.15-.86v.09a6.94 6.94 0 0 0 5.56 6.79 6.9 6.9 0 0 1-3.13.12 7 7 0 0 0 6.48 4.81 13.88 13.88 0 0 1-8.61 3A13 13 0 0 1 0 24.33a19.62 19.62 0 0 0 10.62 3.11" fill="#1b1c92" data-name="Logo FIXED"/></g></svg>