<svg xmlns="http://www.w3.org/2000/svg" viewBox="0 0 42.59 71.9"><path d="M21.76 0c.71.26 1.4.56 2.11.78A17.57 17.57 0 1 1 1.44 20.06 17.65 17.65 0 0 1 14.46.54c.59-.15 1.17-.36 1.75-.54zm-2.91 21.34a3.74 3.74 0 1 0-.09-7.48 3.74 3.74 0 0 0 .09 7.48zM0 42.14l3.93-7 .57.32c-1.64 3.39-1 4.84 2.77 6 8.21 2.54 16.44 5.06 24.63 7.67 5.27 1.69 9.5 4.64 10.44 10.53.77 4.79-.13 9.18-4.43 12.24 2.07-3.39 1.36-5.29-2.44-6.56-.51-.18-1-.32-1.55-.48-7.35-2.29-14.68-4.65-22.07-6.86C6.1 56.33 1.72 53.28 0 47.23z" fill="#FFF"/></svg>