<svg xmlns="http://www.w3.org/2000/svg" viewBox="0 0 96.2 84.5"><path d="M59 0c.86.71 1.75 1.39 2.59 2.13A23.18 23.18 0 0 1 69 13.54a28.92 28.92 0 0 1 .86 11 25.49 25.49 0 0 1-5.22 13.15 18.23 18.23 0 0 1-9.8 6.72 16.48 16.48 0 0 1-18.15-6.89c-.4-.61-.74-1.26-1.13-1.88a.74.74 0 0 0-.43-.33c-3.22-.61-6.43-1.2-9.65-1.79l-.81-.15c.06.22.09.39.15.56a25.13 25.13 0 0 0 14.1 15A28.1 28.1 0 0 0 48.38 51a29.3 29.3 0 0 0 11.71-1.51 27.63 27.63 0 0 0 12.76-9.32 32.67 32.67 0 0 0 3.87-6.35 4.73 4.73 0 0 1 .39-.74 1.9 1.9 0 0 1 .46-.38c.05.19.18.39.15.57a16.09 16.09 0 0 1-.46 1.94A28 28 0 0 1 55 54.51a34.87 34.87 0 0 1-9.18.39 29.7 29.7 0 0 1-26.63-21.79c-.44-1.53-.67-3.13-1-4.7-.13-.67.11-.86.78-.71q9.34 2 18.7 4.05a.78.78 0 0 1 .62.52 15.49 15.49 0 0 0 5.38 6.92 12.35 12.35 0 0 0 13.81 0 17 17 0 0 0 6.14-7.73A24.3 24.3 0 0 0 65.33 18a18.29 18.29 0 0 0-7.17-11.84A1.54 1.54 0 0 0 56.21 6c-5 2.54-10 5-15 7.5l-.32.18c.41.27.78.52 1.14.78a18.1 18.1 0 0 1 7.6 11.72 17.78 17.78 0 0 1-.56 9 9.41 9.41 0 0 1-.69 1.43c-.06.11-.23.15-.35.23a1.49 1.49 0 0 1-.13-.39c0-1 .13-1.95.09-2.92a18.67 18.67 0 0 0-7.33-14.43 26.57 26.57 0 0 0-10.06-4.75 5.12 5.12 0 0 1-.7-.18 2.19 2.19 0 0 1-.46-.31c.13-.12.23-.29.37-.36 1.39-.66 2.78-1.3 4.18-1.94L58.73.12a2.12 2.12 0 0 0 .2-.12zm26.78 84.5c-.8-.21-1.63-.37-2.42-.66a9.94 9.94 0 0 1-5.27-4.52c-.11-.19-.19-.4-.31-.64l4.61-2.41c.31.4.59.8.9 1.15A5.69 5.69 0 0 0 89.42 79a1.71 1.71 0 0 0 1.33-1.39 1.81 1.81 0 0 0-.89-1.84 10.72 10.72 0 0 0-2.74-1.11A41.66 41.66 0 0 1 82.61 73a6.19 6.19 0 0 1-3.81-6 6.68 6.68 0 0 1 3.83-6.24 9.46 9.46 0 0 1 12.79 4.22l.07.18L91 67.49c-.22-.29-.42-.56-.63-.81a4.38 4.38 0 0 0-4.65-1.49 1.69 1.69 0 0 0-1.45 1.36 1.67 1.67 0 0 0 .91 1.89 25.17 25.17 0 0 0 3.13 1.3A25.75 25.75 0 0 1 93 71.55a6 6 0 0 1 3.21 6.34c-.32 3.24-2.35 5.43-5.69 6.28-.51.13-1 .22-1.56.33zM0 60.21c3.21 0 6.41-.06 9.62 0a8.15 8.15 0 0 1 .54 16.25c-1.29.14-2.61.06-3.92.09h-.78v7.55H0zm5.46 11.24h3a6.73 6.73 0 0 0 1.19 0 3 3 0 0 0 2.32-3.56A2.86 2.86 0 0 0 9 65.31H5.46zm51.87 4.01c1.67 2.86 3.32 5.71 5 8.6h-5.4a.56.56 0 0 1-.59-.35c-1.29-2.27-2.6-4.53-3.89-6.81a.64.64 0 0 0-.66-.37h-2.34v7.5H44V60.22H53.51a8.1 8.1 0 0 1 8.06 6.68 8 8 0 0 1-3.94 8.41zm-7.92-3.64h4.29a2.21 2.21 0 0 0 1.53-.7 3.55 3.55 0 0 0 1-3.1 2.88 2.88 0 0 0-3-2.71h-3.77zm-8.9 12.27H34.89a.36.36 0 0 1-.42-.3c-.38-1.22-.78-2.44-1.17-3.66l-.08-.25a17.67 17.67 0 0 1-8.58 0l-1.32 4.19h-5.94l.13-.44q3.91-11.52 7.82-23a.49.49 0 0 1 .56-.41h6.17a.42.42 0 0 1 .48.34q3.91 11.58 7.85 23.15c.04.08.07.19.12.38zm-8.74-8.8L29 66.53h-.08l-2.8 8.75a12 12 0 0 0 5.65.01zm35.71-15.07h5.38v23.84h-5.38z" fill="#FFF"/></svg>