<svg xmlns="http://www.w3.org/2000/svg" viewBox="0 0 603.73 1093.99">
  <title>Fichier 54</title>
  <g id="Calque_2" data-name="Calque 2">
    <g id="VALIDATION_DEFIS">
      <g>
        <path d="M302.49,20.74h0C457.4,20.74,583,146.32,583,301.24v510c0,154.91-125.59,280.5-280.5,280.5h0C147.57,1091.74,22,966.15,22,811.24v-510C22,146.32,147.57,20.74,302.49,20.74Z" style="fill: none;stroke: #efcaca;stroke-miterlimit: 10;stroke-width: 0.5px"/>
        <path d="M302.49,142.24h0c103.83,0,188,84.17,188,188v463c0,103.83-84.17,188-188,188h0c-103.83,0-188-84.17-188-188v-463C114.49,226.41,198.66,142.24,302.49,142.24Z" style="fill: none;stroke: #efcaca;stroke-miterlimit: 10;stroke-width: 0.5px"/>
        <path d="M303,255.24h0a109.5,109.5,0,0,1,109.5,109.5v383A109.51,109.51,0,0,1,303,857.24h0a109.5,109.5,0,0,1-109.5-109.5v-383A109.49,109.49,0,0,1,303,255.24Z" style="fill: none;stroke: #efcaca;stroke-miterlimit: 10;stroke-width: 0.5px"/>
      </g>
      <circle cx="524.51" cy="980" r="20.49" style="fill: #61f984"/>
    </g>
  </g>
</svg>
