<svg viewBox="0 0 39.59 32.17" xmlns="http://www.w3.org/2000/svg"><path d="m12.45 32.17c14.94 0 23.11-12.38 23.11-23.11 0-.35 0-.7 0-1.05a16.54 16.54 0 0 0 4.03-4.21 16.06 16.06 0 0 1 -4.66 1.28 8.17 8.17 0 0 0 3.57-4.49 16.27 16.27 0 0 1 -5.16 2 8.13 8.13 0 0 0 -13.84 7.41 23 23 0 0 1 -16.74-8.52 8.13 8.13 0 0 0 2.51 10.85 8.11 8.11 0 0 1 -3.69-1v.1a8.12 8.12 0 0 0 6.52 8 8 8 0 0 1 -3.67.14 8.16 8.16 0 0 0 7.57 5.59 16.31 16.31 0 0 1 -10.07 3.48 15.63 15.63 0 0 1 -1.93-.12 23 23 0 0 0 12.45 3.65" fill="#000"/></svg>