<svg xmlns="http://www.w3.org/2000/svg" viewBox="0 0 504.73 1276.99"><g data-name="Calque 2"><g data-name="02_HOME"><path d="M175.46.5l126.6 117.33c47.73 44.41 63 62.31 94.13 62.31s46.4-25.19 46.4-57.67c0-35.13-17.24-63.63-37.78-93.46v-1.33l80.87 11.93c11.93 22.54 18.55 62.31 18.55 88.16 0 78.22-43.74 118-102.07 118-46.4 0-82.2-28.5-137.88-88.82l-55-58.33 24.53 173V273l-67.63-14V.5zm158.4 328.78c102.74 0 170.35 67 170.35 168.36S436.62 666 333.86 666c-80.21-.66-174.33-57-174.33-168.37.02-114 92.16-169.02 174.33-168.35zm-3.29 271.11c68.27-.67 112-41.76 112-102.75S398.18 394.9 331.23 394.9c-68.27 0-117.37 39.77-117.37 102.74S263 600.39 330.57 600.39zm72.29 212.1l-33.81-86.83h27.81l100.75 106.72v37.12l-331.43 7.29v-78.88zM504.23 1122c0 104.74-70.26 154.45-153.78 154.45-64.3 0-135.22-42.42-182.95-67.61l-167-88.78v-88.16h1.33l232.66 159.74c-25.85-32.48-31.15-60.32-31.15-87.49 0-76.23 68.93-137.88 151.13-137.88s149.76 54.36 149.76 155.73zm-62.3 0c0-59.65-39.11-90.14-87.5-90.14-56.34 0-97.44 31.15-97.44 90.81 0 43.08 29.83 88.16 97.44 88.16 47.06.04 87.5-29.83 87.5-88.83z" fill="#1d1899" stroke="#ffb6d2"/></g></g></svg>